<?xml version="1.0" standalone="no"?>
<!DOCTYPE svg PUBLIC "-//W3C//DTD SVG 20010904//EN"
        "http://www.w3.org/TR/2001/REC-SVG-20010904/DTD/svg10.dtd">
<svg version="1.0" xmlns="http://www.w3.org/2000/svg"
     width="512.000000pt" height="512.000000pt" viewBox="0 0 512.000000 512.000000"
     preserveAspectRatio="xMidYMid meet">

    <g transform="translate(0.000000,512.000000) scale(0.100000,-0.100000)"
       fill="#000000" stroke="none">
        <path d="M2530 4643 c-8 -3 -23 -12 -32 -21 -16 -14 -18 -41 -18 -302 0 -271
1 -288 19 -304 26 -23 82 -24 115 -3 l26 17 0 290 0 290 -32 20 c-33 20 -51
23 -78 13z"/>
        <path d="M1804 4161 c-26 -11 -48 -63 -41 -93 6 -21 202 -226 238 -249 19 -12
66 -11 88 1 25 13 45 64 37 94 -3 14 -56 75 -117 137 -95 94 -117 112 -148
115 -20 2 -45 0 -57 -5z"/>
        <path d="M3232 4163 c-16 -6 -200 -189 -229 -227 -28 -37 -29 -75 -3 -109 23
-29 59 -41 92 -28 22 8 238 219 259 253 17 25 9 60 -20 89 -28 28 -65 36 -99
22z"/>
        <path d="M2465 3419 c-11 -6 -158 -149 -326 -316 l-306 -305 -5 85 c-4 70 -10
97 -36 149 -62 126 -162 211 -283 242 -82 20 -116 20 -198 0 -103 -26 -194
-92 -253 -184 -90 -140 -94 -400 -8 -546 l18 -31 -83 -7 c-141 -10 -248 -59
-345 -156 -74 -74 -125 -166 -146 -262 -10 -49 -13 -193 -14 -641 l0 -579 31
-29 31 -29 665 0 c711 0 706 0 733 49 6 11 10 89 10 180 0 157 0 160 -26 190
-33 40 -79 42 -118 6 -25 -23 -26 -28 -26 -135 l0 -110 -370 0 -370 0 0 466
c0 477 -1 492 -39 521 -31 24 -90 11 -118 -26 -9 -12 -12 -133 -13 -488 l0
-473 -105 0 -105 0 2 543 3 542 27 56 c32 65 106 138 174 171 48 22 58 23 395
28 287 4 349 8 364 20 11 8 205 200 432 427 392 391 413 410 413 378 0 -50
-45 -212 -79 -285 -36 -79 -42 -89 -157 -259 -112 -168 -335 -499 -362 -538
-93 -136 -92 -133 -92 -216 0 -71 2 -80 26 -102 59 -54 144 -8 144 77 0 48 -5
39 245 408 77 113 154 228 171 255 18 28 41 61 52 75 37 48 132 214 132 232 0
10 5 18 10 18 6 0 10 -8 10 -18 0 -19 97 -189 134 -233 11 -14 33 -46 48 -70
14 -24 114 -174 222 -334 l196 -290 0 -503 0 -504 31 -29 31 -29 665 0 c470 0
671 3 686 11 12 6 30 21 39 33 16 19 18 66 17 596 0 601 -2 646 -44 735 -61
130 -151 220 -278 279 -49 22 -159 46 -219 46 l-47 0 19 33 c42 72 60 152 60
266 0 200 -61 323 -206 416 -52 34 -156 65 -214 65 -89 0 -218 -54 -287 -119
-41 -39 -101 -137 -117 -191 -9 -29 -16 -83 -16 -119 l0 -66 -307 307 c-170
168 -318 311 -330 317 -28 14 -162 14 -188 0z m1029 -1069 c16 -12 78 -16 365
-20 333 -5 348 -6 393 -28 65 -30 141 -106 175 -172 l28 -55 3 -542 2 -543
-105 0 -105 0 0 309 0 310 -24 27 c-33 39 -89 39 -122 0 l-24 -27 0 -310 0
-309 -370 0 -369 0 -3 478 -3 477 -176 260 c-97 143 -224 332 -284 420 -123
183 -167 271 -201 404 -49 193 -75 210 389 -253 227 -226 421 -418 431 -426z
m-1957 725 c75 -49 112 -117 120 -223 11 -151 -36 -263 -133 -311 -128 -64
-269 -19 -330 106 -25 50 -28 68 -28 157 -1 145 24 207 109 266 50 35 72 39
157 35 51 -3 76 -10 105 -30z m2301 -1 c94 -69 112 -112 112 -267 0 -101 -3
-118 -25 -164 -80 -160 -310 -176 -411 -30 -42 60 -58 139 -51 239 8 104 45
174 117 222 47 31 69 35 153 31 55 -3 76 -9 105 -31z"/>
        <path d="M4119 1977 c-23 -17 -39 -52 -39 -82 0 -33 42 -75 75 -75 33 0 81 24
89 45 29 75 -64 159 -125 112z"/>
        <path d="M1805 1535 c-54 -53 -16 -145 59 -145 65 0 103 67 71 126 -27 50 -90
60 -130 19z"/>
    </g>
</svg>
